<svg width="34" height="36" viewBox="0 0 36 36" fill="none" xmlns="http://www.w3.org/2000/svg">
<path d="M35.0508 32.6294L23.6382 21.2168C25.4092 18.9272 26.3672 16.1279 26.3672 13.1836C26.3672 9.65918 24.9917 6.35449 22.5044 3.86279C20.0171 1.37109 16.7036 0 13.1836 0C9.66357 0 6.3501 1.37549 3.86279 3.86279C1.37109 6.3501 0 9.65918 0 13.1836C0 16.7036 1.37549 20.0171 3.86279 22.5044C6.3501 24.9961 9.65918 26.3672 13.1836 26.3672C16.1279 26.3672 18.9229 25.4092 21.2124 23.6426L32.625 35.0508C32.6585 35.0843 32.6982 35.1108 32.7419 35.129C32.7857 35.1471 32.8325 35.1564 32.8799 35.1564C32.9272 35.1564 32.9741 35.1471 33.0178 35.129C33.0616 35.1108 33.1013 35.0843 33.1348 35.0508L35.0508 33.1392C35.0843 33.1057 35.1108 33.066 35.129 33.0222C35.1471 32.9785 35.1564 32.9316 35.1564 32.8843C35.1564 32.8369 35.1471 32.7901 35.129 32.7463C35.1108 32.7026 35.0843 32.6629 35.0508 32.6294ZM20.1445 20.1445C18.2813 22.0034 15.8115 23.0273 13.1836 23.0273C10.5557 23.0273 8.08594 22.0034 6.22266 20.1445C4.36377 18.2813 3.33984 15.8115 3.33984 13.1836C3.33984 10.5557 4.36377 8.08154 6.22266 6.22266C8.08594 4.36377 10.5557 3.33984 13.1836 3.33984C15.8115 3.33984 18.2856 4.35938 20.1445 6.22266C22.0034 8.08594 23.0273 10.5557 23.0273 13.1836C23.0273 15.8115 22.0034 18.2856 20.1445 20.1445Z" fill="currentColor" fill-opacity="1"/>
</svg>
